<?xml version="1.0" encoding="UTF-8"?>
<svg width="1067px" height="1777px" viewBox="0 0 1067 1777" version="1.1" xmlns="http://www.w3.org/2000/svg" xmlns:xlink="http://www.w3.org/1999/xlink">
    <!-- Generator: Sketch 49.3 (51167) - http://www.bohemiancoding.com/sketch -->
    <title>Logo Copy</title>
    <desc>Created with Sketch.</desc>
    <defs></defs>
    <g id="Logo-Copy" stroke="none" stroke-width="1" fill="none" fill-rule="evenodd">
        <path d="M0.000229292815,534 C7.64419863e-05,533.833351 0,533.666685 0,533.5 C0,238.856086 238.856086,-1.13686838e-13 533.5,-1.13686838e-13 C828.143914,-1.13686838e-13 1067,238.856086 1067,533.5 C1067,828.143914 828.143914,1067 533.5,1067 L533.5,1510.71538 C533.25314,1657.82771 413.919656,1777.0094 266.749809,1777.0094 C119.579962,1777.0094 0.246478114,1657.82771 0.000381322853,1510.71538 L0,1510.71538 L0,534 Z M381.490598,1045.03167 C293.296756,1018.86319 214.643659,970.507947 152.000065,906.434684 L152.000164,1410.41306 C152.106025,1536.69436 167.502497,1639 266.745217,1639 C365.987938,1639 381.384409,1536.69436 381.490598,1410.41306 L381.490598,1045.03167 Z M533.955983,913.088889 C743.345305,913.088889 913.088889,743.345305 913.088889,533.955983 C913.088889,324.566661 743.345305,154.823077 533.955983,154.823077 C324.566661,154.823077 154.823077,324.566661 154.823077,533.955983 C154.823077,743.345305 324.566661,913.088889 533.955983,913.088889 Z M533.955983,745.000427 C417.399355,745.000427 322.911538,650.512611 322.911538,533.955983 C322.911538,417.399355 417.399355,322.911538 533.955983,322.911538 C650.512611,322.911538 745.000427,417.399355 745.000427,533.955983 C745.000427,650.512611 650.512611,745.000427 533.955983,745.000427 Z" id="Combined-Shape" fill="#FFFFFF"></path>
    </g>
</svg>